# xmcd
#
# Track frame offsets: 
#        150
#        10835
#        22530
#        42852
#        53240
#        68122
#        79595
#        94402
#        106100
#        117692
#        133380
#        149185
#        163902
#        175092
#        185185
#        196745
#
# Disc length: 2751 seconds
#
# Revision: 0
# Processed by: cddbd v1.4PL0 Copyright (c) Steve Scherf et al.
# Submitted via: ExactAudioCopy v0.90b4
#
DISCID=e30abd10
DTITLE=Kenny Rogers - Kenny Rogers
DYEAR=1992
DGENRE=
TTITLE0=Last few threads of love
TTITLE1=What am I gonna do
TTITLE2=Lay it down
TTITLE3=Trying just as hard
TTITLE4=Heed the call
TTITLE5=Poem for my little lady
TTITLE6=Church without a name
TTITLE7=I just wnat to give my love to you
TTITLE8=Calico Silver
TTITLE9=The way it used to be
TTITLE10=I found a reason
TTITLE11=All God's lonley children
TTITLE12=If wishes were horses
TTITLE13=New Design
TTITLE14=Gilr get a hold of yourself
TTITLE15=Once again she's all alone
EXTD=
EXTT0=
EXTT1=
EXTT2=
EXTT3=
EXTT4=
EXTT5=
EXTT6=
EXTT7=
EXTT8=
EXTT9=
EXTT10=
EXTT11=
EXTT12=
EXTT13=
EXTT14=
EXTT15=
PLAYORDER=
